<mxfile host="app.diagrams.net" modified="2024-02-12T10:00:50.721Z" agent="Mozilla/5.0 (Windows NT 10.0; Win64; x64; rv:122.0) Gecko/20100101 Firefox/122.0" etag="5ZSMXqKh9tqqTMDhs_uQ" version="23.1.2" type="device">
  <diagram name="Page-1" id="r5ffIwT0-qjKUBOTaA5o">
    <mxGraphModel dx="2200" dy="539" grid="0" gridSize="10" guides="1" tooltips="1" connect="1" arrows="1" fold="1" page="0" pageScale="1" pageWidth="850" pageHeight="1100" math="0" shadow="0">
      <root>
        <mxCell id="0" />
        <mxCell id="1" parent="0" />
        <mxCell id="_A-_bPxh8dxzWCv0fmBQ-1" value="&lt;div&gt;First Choice of&lt;/div&gt;&lt;div&gt;User/Admin&lt;br&gt;&lt;/div&gt;" style="rounded=0;whiteSpace=wrap;html=1;fontSize=16;" parent="1" vertex="1">
          <mxGeometry x="117" y="65" width="160" height="80" as="geometry" />
        </mxCell>
        <mxCell id="_A-_bPxh8dxzWCv0fmBQ-8" value="" style="edgeStyle=none;orthogonalLoop=1;jettySize=auto;html=1;rounded=0;fontSize=12;curved=1;startSize=8;endSize=8;exitX=1;exitY=1;exitDx=0;exitDy=0;entryX=0.3;entryY=-0.037;entryDx=0;entryDy=0;entryPerimeter=0;" parent="1" source="_A-_bPxh8dxzWCv0fmBQ-1" target="_A-_bPxh8dxzWCv0fmBQ-11" edge="1">
          <mxGeometry width="120" relative="1" as="geometry">
            <mxPoint x="200" y="200" as="sourcePoint" />
            <mxPoint x="336" y="213" as="targetPoint" />
            <Array as="points" />
          </mxGeometry>
        </mxCell>
        <mxCell id="_A-_bPxh8dxzWCv0fmBQ-9" value="" style="edgeStyle=none;orthogonalLoop=1;jettySize=auto;html=1;rounded=0;fontSize=12;curved=1;startSize=8;endSize=8;exitX=0;exitY=1;exitDx=0;exitDy=0;" parent="1" source="_A-_bPxh8dxzWCv0fmBQ-1" target="_A-_bPxh8dxzWCv0fmBQ-10" edge="1">
          <mxGeometry width="120" relative="1" as="geometry">
            <mxPoint x="200" y="200" as="sourcePoint" />
            <mxPoint x="73" y="218" as="targetPoint" />
            <Array as="points" />
          </mxGeometry>
        </mxCell>
        <mxCell id="_A-_bPxh8dxzWCv0fmBQ-10" value="Admin" style="rounded=0;whiteSpace=wrap;html=1;fontSize=16;" parent="1" vertex="1">
          <mxGeometry x="-73" y="211" width="160" height="80" as="geometry" />
        </mxCell>
        <mxCell id="_A-_bPxh8dxzWCv0fmBQ-11" value="User" style="rounded=0;whiteSpace=wrap;html=1;fontSize=16;" parent="1" vertex="1">
          <mxGeometry x="326" y="211" width="160" height="80" as="geometry" />
        </mxCell>
        <mxCell id="_A-_bPxh8dxzWCv0fmBQ-12" value="" style="edgeStyle=none;orthogonalLoop=1;jettySize=auto;html=1;rounded=0;fontSize=12;curved=1;startSize=8;endSize=8;exitX=0.131;exitY=0.988;exitDx=0;exitDy=0;exitPerimeter=0;entryX=0.441;entryY=0.265;entryDx=0;entryDy=0;entryPerimeter=0;" parent="1" source="_A-_bPxh8dxzWCv0fmBQ-10" target="_A-_bPxh8dxzWCv0fmBQ-18" edge="1">
          <mxGeometry width="120" relative="1" as="geometry">
            <mxPoint x="200" y="303" as="sourcePoint" />
            <mxPoint x="-103" y="316" as="targetPoint" />
            <Array as="points" />
          </mxGeometry>
        </mxCell>
        <mxCell id="_A-_bPxh8dxzWCv0fmBQ-13" value="" style="edgeStyle=none;orthogonalLoop=1;jettySize=auto;html=1;rounded=0;fontSize=12;curved=1;startSize=8;endSize=8;exitX=0.838;exitY=1.038;exitDx=0;exitDy=0;exitPerimeter=0;entryX=0.5;entryY=0;entryDx=0;entryDy=0;entryPerimeter=0;" parent="1" source="_A-_bPxh8dxzWCv0fmBQ-10" target="_A-_bPxh8dxzWCv0fmBQ-24" edge="1">
          <mxGeometry width="120" relative="1" as="geometry">
            <mxPoint x="80" y="290.96" as="sourcePoint" />
            <mxPoint x="111" y="355" as="targetPoint" />
            <Array as="points" />
          </mxGeometry>
        </mxCell>
        <mxCell id="_A-_bPxh8dxzWCv0fmBQ-14" value="" style="edgeStyle=none;orthogonalLoop=1;jettySize=auto;html=1;rounded=0;fontSize=12;curved=1;startSize=8;endSize=8;exitX=0.881;exitY=1.013;exitDx=0;exitDy=0;exitPerimeter=0;entryX=0.5;entryY=0;entryDx=0;entryDy=0;" parent="1" source="_A-_bPxh8dxzWCv0fmBQ-11" target="_A-_bPxh8dxzWCv0fmBQ-27" edge="1">
          <mxGeometry width="120" relative="1" as="geometry">
            <mxPoint x="444.92" y="290.96" as="sourcePoint" />
            <mxPoint x="494.92" y="351.96" as="targetPoint" />
            <Array as="points" />
          </mxGeometry>
        </mxCell>
        <mxCell id="_A-_bPxh8dxzWCv0fmBQ-15" value="" style="edgeStyle=none;orthogonalLoop=1;jettySize=auto;html=1;rounded=0;fontSize=12;curved=1;startSize=8;endSize=8;exitX=0.188;exitY=0.988;exitDx=0;exitDy=0;exitPerimeter=0;entryX=0.5;entryY=0;entryDx=0;entryDy=0;" parent="1" source="_A-_bPxh8dxzWCv0fmBQ-11" target="_A-_bPxh8dxzWCv0fmBQ-25" edge="1">
          <mxGeometry width="120" relative="1" as="geometry">
            <mxPoint x="354" y="293" as="sourcePoint" />
            <mxPoint x="330" y="353" as="targetPoint" />
            <Array as="points" />
          </mxGeometry>
        </mxCell>
        <mxCell id="_A-_bPxh8dxzWCv0fmBQ-16" value="" style="edgeStyle=none;orthogonalLoop=1;jettySize=auto;html=1;rounded=0;fontSize=12;curved=1;startSize=8;endSize=8;exitX=0.556;exitY=0.988;exitDx=0;exitDy=0;exitPerimeter=0;entryX=0.5;entryY=0;entryDx=0;entryDy=0;" parent="1" source="_A-_bPxh8dxzWCv0fmBQ-11" target="_A-_bPxh8dxzWCv0fmBQ-26" edge="1">
          <mxGeometry width="120" relative="1" as="geometry">
            <mxPoint x="413" y="290.96" as="sourcePoint" />
            <mxPoint x="413" y="354" as="targetPoint" />
            <Array as="points" />
          </mxGeometry>
        </mxCell>
        <mxCell id="_A-_bPxh8dxzWCv0fmBQ-17" value="" style="edgeStyle=none;orthogonalLoop=1;jettySize=auto;html=1;rounded=0;fontSize=12;curved=1;startSize=8;endSize=8;exitX=0.5;exitY=1;exitDx=0;exitDy=0;" parent="1" source="_A-_bPxh8dxzWCv0fmBQ-10" target="_A-_bPxh8dxzWCv0fmBQ-23" edge="1">
          <mxGeometry width="120" relative="1" as="geometry">
            <mxPoint x="6" y="290.96" as="sourcePoint" />
            <mxPoint x="4" y="354.96" as="targetPoint" />
            <Array as="points" />
          </mxGeometry>
        </mxCell>
        <mxCell id="_A-_bPxh8dxzWCv0fmBQ-18" value="Signup" style="rounded=0;whiteSpace=wrap;html=1;fontSize=16;" parent="1" vertex="1">
          <mxGeometry x="-146" y="357" width="68" height="34" as="geometry" />
        </mxCell>
        <mxCell id="_A-_bPxh8dxzWCv0fmBQ-23" value="Login" style="rounded=0;whiteSpace=wrap;html=1;fontSize=16;" parent="1" vertex="1">
          <mxGeometry x="-33" y="360" width="68" height="34" as="geometry" />
        </mxCell>
        <mxCell id="_A-_bPxh8dxzWCv0fmBQ-24" value="Back" style="rounded=0;whiteSpace=wrap;html=1;fontSize=16;" parent="1" vertex="1">
          <mxGeometry x="75" y="357" width="68" height="34" as="geometry" />
        </mxCell>
        <mxCell id="_A-_bPxh8dxzWCv0fmBQ-25" value="Signup" style="rounded=0;whiteSpace=wrap;html=1;fontSize=16;" parent="1" vertex="1">
          <mxGeometry x="285" y="357" width="68" height="34" as="geometry" />
        </mxCell>
        <mxCell id="_A-_bPxh8dxzWCv0fmBQ-26" value="Login" style="rounded=0;whiteSpace=wrap;html=1;fontSize=16;" parent="1" vertex="1">
          <mxGeometry x="393" y="360" width="68" height="34" as="geometry" />
        </mxCell>
        <mxCell id="_A-_bPxh8dxzWCv0fmBQ-27" value="Back" style="rounded=0;whiteSpace=wrap;html=1;fontSize=16;" parent="1" vertex="1">
          <mxGeometry x="501" y="355" width="68" height="34" as="geometry" />
        </mxCell>
        <mxCell id="_A-_bPxh8dxzWCv0fmBQ-28" value="" style="edgeStyle=none;orthogonalLoop=1;jettySize=auto;html=1;rounded=0;fontSize=12;curved=1;startSize=8;endSize=8;exitX=0.5;exitY=1;exitDx=0;exitDy=0;entryX=0.25;entryY=0;entryDx=0;entryDy=0;" parent="1" source="_A-_bPxh8dxzWCv0fmBQ-18" target="_A-_bPxh8dxzWCv0fmBQ-32" edge="1">
          <mxGeometry width="120" relative="1" as="geometry">
            <mxPoint x="-115" y="397" as="sourcePoint" />
            <mxPoint x="-83" y="465" as="targetPoint" />
            <Array as="points" />
          </mxGeometry>
        </mxCell>
        <mxCell id="_A-_bPxh8dxzWCv0fmBQ-29" value="" style="edgeStyle=none;orthogonalLoop=1;jettySize=auto;html=1;rounded=0;fontSize=12;curved=1;startSize=8;endSize=8;exitX=0.5;exitY=1;exitDx=0;exitDy=0;entryX=0.589;entryY=0;entryDx=0;entryDy=0;entryPerimeter=0;" parent="1" source="_A-_bPxh8dxzWCv0fmBQ-23" target="_A-_bPxh8dxzWCv0fmBQ-32" edge="1">
          <mxGeometry width="120" relative="1" as="geometry">
            <mxPoint x="3" y="399" as="sourcePoint" />
            <mxPoint x="-27" y="467" as="targetPoint" />
            <Array as="points" />
          </mxGeometry>
        </mxCell>
        <mxCell id="_A-_bPxh8dxzWCv0fmBQ-30" value="" style="edgeStyle=none;orthogonalLoop=1;jettySize=auto;html=1;rounded=0;fontSize=12;curved=1;startSize=8;endSize=8;exitX=0.5;exitY=1;exitDx=0;exitDy=0;entryX=0.636;entryY=0.031;entryDx=0;entryDy=0;entryPerimeter=0;" parent="1" source="_A-_bPxh8dxzWCv0fmBQ-26" target="_A-_bPxh8dxzWCv0fmBQ-33" edge="1">
          <mxGeometry width="120" relative="1" as="geometry">
            <mxPoint x="426" y="398" as="sourcePoint" />
            <mxPoint x="397" y="468" as="targetPoint" />
            <Array as="points" />
          </mxGeometry>
        </mxCell>
        <mxCell id="_A-_bPxh8dxzWCv0fmBQ-31" value="" style="edgeStyle=none;orthogonalLoop=1;jettySize=auto;html=1;rounded=0;fontSize=12;curved=1;startSize=8;endSize=8;exitX=0.5;exitY=1;exitDx=0;exitDy=0;entryX=0.302;entryY=0.031;entryDx=0;entryDy=0;entryPerimeter=0;" parent="1" source="_A-_bPxh8dxzWCv0fmBQ-25" target="_A-_bPxh8dxzWCv0fmBQ-33" edge="1">
          <mxGeometry width="120" relative="1" as="geometry">
            <mxPoint x="316" y="394" as="sourcePoint" />
            <mxPoint x="325" y="464" as="targetPoint" />
            <Array as="points" />
          </mxGeometry>
        </mxCell>
        <mxCell id="_A-_bPxh8dxzWCv0fmBQ-32" value="Getting A User Ac No." style="rounded=0;whiteSpace=wrap;html=1;fontSize=16;" parent="1" vertex="1">
          <mxGeometry x="-111" y="466" width="129" height="65" as="geometry" />
        </mxCell>
        <mxCell id="_A-_bPxh8dxzWCv0fmBQ-39" value="" style="edgeStyle=none;curved=1;rounded=0;orthogonalLoop=1;jettySize=auto;html=1;fontSize=12;startSize=8;endSize=8;" parent="1" source="_A-_bPxh8dxzWCv0fmBQ-33" target="_A-_bPxh8dxzWCv0fmBQ-38" edge="1">
          <mxGeometry relative="1" as="geometry" />
        </mxCell>
        <mxCell id="_A-_bPxh8dxzWCv0fmBQ-33" value="Getting A User Ac No." style="rounded=0;whiteSpace=wrap;html=1;fontSize=16;" parent="1" vertex="1">
          <mxGeometry x="298" y="466" width="129" height="65" as="geometry" />
        </mxCell>
        <mxCell id="_A-_bPxh8dxzWCv0fmBQ-35" value="" style="edgeStyle=none;orthogonalLoop=1;jettySize=auto;html=1;rounded=0;fontSize=12;curved=1;startSize=8;endSize=8;exitX=0.5;exitY=1;exitDx=0;exitDy=0;entryX=0.65;entryY=0.025;entryDx=0;entryDy=0;entryPerimeter=0;" parent="1" source="_A-_bPxh8dxzWCv0fmBQ-32" target="_A-_bPxh8dxzWCv0fmBQ-36" edge="1">
          <mxGeometry width="120" relative="1" as="geometry">
            <mxPoint x="-47" y="553" as="sourcePoint" />
            <mxPoint x="-53" y="610" as="targetPoint" />
            <Array as="points" />
          </mxGeometry>
        </mxCell>
        <mxCell id="_A-_bPxh8dxzWCv0fmBQ-44" style="edgeStyle=none;curved=1;rounded=0;orthogonalLoop=1;jettySize=auto;html=1;fontSize=12;startSize=8;endSize=8;entryX=0.93;entryY=1;entryDx=0;entryDy=0;entryPerimeter=0;" parent="1" source="_A-_bPxh8dxzWCv0fmBQ-36" target="_A-_bPxh8dxzWCv0fmBQ-32" edge="1">
          <mxGeometry relative="1" as="geometry">
            <mxPoint x="124" y="620" as="targetPoint" />
            <Array as="points">
              <mxPoint x="13" y="780" />
              <mxPoint x="157" y="694" />
            </Array>
          </mxGeometry>
        </mxCell>
        <mxCell id="_A-_bPxh8dxzWCv0fmBQ-36" value="Displaying User Creds and Adding or Removing Cash" style="rounded=0;whiteSpace=wrap;html=1;fontSize=16;" parent="1" vertex="1">
          <mxGeometry x="-146" y="617" width="160" height="80" as="geometry" />
        </mxCell>
        <mxCell id="OGSjCngKymhnxez_8z23-2" value="" style="edgeStyle=orthogonalEdgeStyle;rounded=0;orthogonalLoop=1;jettySize=auto;html=1;" edge="1" parent="1" source="_A-_bPxh8dxzWCv0fmBQ-38">
          <mxGeometry relative="1" as="geometry">
            <mxPoint x="429" y="520" as="targetPoint" />
            <Array as="points">
              <mxPoint x="370" y="739" />
              <mxPoint x="371" y="739" />
              <mxPoint x="371" y="820" />
              <mxPoint x="640" y="820" />
              <mxPoint x="640" y="597" />
              <mxPoint x="449" y="597" />
            </Array>
          </mxGeometry>
        </mxCell>
        <mxCell id="_A-_bPxh8dxzWCv0fmBQ-38" value="Just Displaying Cash and Withdrawing Cash" style="rounded=0;whiteSpace=wrap;html=1;fontSize=16;" parent="1" vertex="1">
          <mxGeometry x="290" y="614" width="160" height="80" as="geometry" />
        </mxCell>
        <mxCell id="OGSjCngKymhnxez_8z23-3" value="Choice phase" style="shape=note;whiteSpace=wrap;html=1;backgroundOutline=1;fontColor=#000000;darkOpacity=0.05;fillColor=#FFF9B2;strokeColor=none;fillStyle=solid;direction=west;gradientDirection=north;gradientColor=#FFF2A1;shadow=1;size=20;pointerEvents=1;" vertex="1" parent="1">
          <mxGeometry x="16" y="534" width="96" height="83" as="geometry" />
        </mxCell>
        <mxCell id="OGSjCngKymhnxez_8z23-4" value="Choice phase" style="shape=note;whiteSpace=wrap;html=1;backgroundOutline=1;fontColor=#000000;darkOpacity=0.05;fillColor=#FFF9B2;strokeColor=none;fillStyle=solid;direction=west;gradientDirection=north;gradientColor=#FFF2A1;shadow=1;size=20;pointerEvents=1;" vertex="1" parent="1">
          <mxGeometry x="450" y="512" width="96" height="83" as="geometry" />
        </mxCell>
        <mxCell id="OGSjCngKymhnxez_8z23-10" value="" style="edgeStyle=orthogonalEdgeStyle;rounded=0;orthogonalLoop=1;jettySize=auto;html=1;" edge="1" parent="1" source="OGSjCngKymhnxez_8z23-5" target="OGSjCngKymhnxez_8z23-6">
          <mxGeometry relative="1" as="geometry" />
        </mxCell>
        <mxCell id="OGSjCngKymhnxez_8z23-16" value="" style="edgeStyle=orthogonalEdgeStyle;rounded=0;orthogonalLoop=1;jettySize=auto;html=1;entryX=0;entryY=0.5;entryDx=0;entryDy=0;fillColor=#d5e8d4;strokeColor=#82b366;" edge="1" parent="1" source="OGSjCngKymhnxez_8z23-5" target="_A-_bPxh8dxzWCv0fmBQ-18">
          <mxGeometry relative="1" as="geometry">
            <mxPoint x="-272" y="385" as="targetPoint" />
            <Array as="points">
              <mxPoint x="-271" y="688" />
              <mxPoint x="-271" y="374" />
            </Array>
          </mxGeometry>
        </mxCell>
        <mxCell id="OGSjCngKymhnxez_8z23-18" value="" style="edgeStyle=orthogonalEdgeStyle;rounded=0;orthogonalLoop=1;jettySize=auto;html=1;entryX=0.25;entryY=1;entryDx=0;entryDy=0;fillColor=#d5e8d4;strokeColor=#82b366;" edge="1" parent="1" source="OGSjCngKymhnxez_8z23-5" target="_A-_bPxh8dxzWCv0fmBQ-23">
          <mxGeometry relative="1" as="geometry">
            <mxPoint x="-27" y="417" as="targetPoint" />
            <Array as="points">
              <mxPoint x="-214" y="688" />
              <mxPoint x="-214" y="394" />
            </Array>
          </mxGeometry>
        </mxCell>
        <mxCell id="OGSjCngKymhnxez_8z23-20" value="" style="edgeStyle=orthogonalEdgeStyle;rounded=0;orthogonalLoop=1;jettySize=auto;html=1;exitX=0.633;exitY=1.05;exitDx=0;exitDy=0;exitPerimeter=0;entryX=0;entryY=0.5;entryDx=0;entryDy=0;fillColor=#d5e8d4;strokeColor=#82b366;" edge="1" parent="1" source="OGSjCngKymhnxez_8z23-5" target="_A-_bPxh8dxzWCv0fmBQ-25">
          <mxGeometry relative="1" as="geometry">
            <mxPoint x="-396" y="727" as="sourcePoint" />
            <mxPoint x="191" y="817" as="targetPoint" />
            <Array as="points">
              <mxPoint x="-402" y="827" />
              <mxPoint x="192" y="827" />
              <mxPoint x="192" y="374" />
            </Array>
          </mxGeometry>
        </mxCell>
        <mxCell id="OGSjCngKymhnxez_8z23-22" value="" style="edgeStyle=orthogonalEdgeStyle;rounded=0;orthogonalLoop=1;jettySize=auto;html=1;entryX=0.5;entryY=1;entryDx=0;entryDy=0;fillColor=#d5e8d4;strokeColor=#82b366;" edge="1" parent="1" source="OGSjCngKymhnxez_8z23-5" target="_A-_bPxh8dxzWCv0fmBQ-26">
          <mxGeometry relative="1" as="geometry">
            <mxPoint x="202" y="459" as="targetPoint" />
            <Array as="points">
              <mxPoint x="-418" y="758" />
              <mxPoint x="-417" y="758" />
              <mxPoint x="-417" y="833" />
              <mxPoint x="288" y="833" />
              <mxPoint x="288" y="480" />
              <mxPoint x="202" y="480" />
              <mxPoint x="202" y="394" />
            </Array>
          </mxGeometry>
        </mxCell>
        <mxCell id="OGSjCngKymhnxez_8z23-5" value="&lt;div&gt;Creds&lt;/div&gt;&lt;div&gt;(Credentials)&lt;br&gt;&lt;/div&gt;" style="shape=process;whiteSpace=wrap;html=1;backgroundOutline=1;fillColor=#d5e8d4;strokeColor=#82b366;" vertex="1" parent="1">
          <mxGeometry x="-478" y="658" width="120" height="60" as="geometry" />
        </mxCell>
        <mxCell id="OGSjCngKymhnxez_8z23-9" value="" style="edgeStyle=orthogonalEdgeStyle;rounded=0;orthogonalLoop=1;jettySize=auto;html=1;" edge="1" parent="1" source="OGSjCngKymhnxez_8z23-6" target="OGSjCngKymhnxez_8z23-5">
          <mxGeometry relative="1" as="geometry" />
        </mxCell>
        <mxCell id="OGSjCngKymhnxez_8z23-28" value="" style="edgeStyle=orthogonalEdgeStyle;rounded=0;orthogonalLoop=1;jettySize=auto;html=1;fillColor=#f8cecc;strokeColor=#b85450;" edge="1" parent="1" source="OGSjCngKymhnxez_8z23-6" target="_A-_bPxh8dxzWCv0fmBQ-36">
          <mxGeometry relative="1" as="geometry">
            <mxPoint x="-258" y="587" as="targetPoint" />
          </mxGeometry>
        </mxCell>
        <mxCell id="OGSjCngKymhnxez_8z23-6" value="Admin Dash&amp;nbsp;&amp;nbsp; " style="shape=process;whiteSpace=wrap;html=1;backgroundOutline=1;fillColor=#f8cecc;strokeColor=#b85450;" vertex="1" parent="1">
          <mxGeometry x="-478" y="557" width="120" height="60" as="geometry" />
        </mxCell>
        <mxCell id="OGSjCngKymhnxez_8z23-8" value="" style="edgeStyle=orthogonalEdgeStyle;rounded=0;orthogonalLoop=1;jettySize=auto;html=1;" edge="1" parent="1" source="OGSjCngKymhnxez_8z23-7" target="OGSjCngKymhnxez_8z23-6">
          <mxGeometry relative="1" as="geometry" />
        </mxCell>
        <mxCell id="OGSjCngKymhnxez_8z23-24" value="" style="edgeStyle=orthogonalEdgeStyle;rounded=0;orthogonalLoop=1;jettySize=auto;html=1;entryX=-0.012;entryY=0.588;entryDx=0;entryDy=0;entryPerimeter=0;fillColor=#dae8fc;strokeColor=#007FFF;" edge="1" parent="1" source="OGSjCngKymhnxez_8z23-7" target="_A-_bPxh8dxzWCv0fmBQ-36">
          <mxGeometry relative="1" as="geometry">
            <mxPoint x="-278" y="467" as="targetPoint" />
          </mxGeometry>
        </mxCell>
        <mxCell id="OGSjCngKymhnxez_8z23-26" value="" style="edgeStyle=orthogonalEdgeStyle;rounded=0;orthogonalLoop=1;jettySize=auto;html=1;entryX=0.2;entryY=-0.012;entryDx=0;entryDy=0;entryPerimeter=0;fillColor=#dae8fc;strokeColor=#007FFF;" edge="1" parent="1" source="OGSjCngKymhnxez_8z23-7" target="_A-_bPxh8dxzWCv0fmBQ-38">
          <mxGeometry relative="1" as="geometry">
            <mxPoint x="-278" y="467" as="targetPoint" />
          </mxGeometry>
        </mxCell>
        <mxCell id="OGSjCngKymhnxez_8z23-7" value="User Info" style="shape=process;whiteSpace=wrap;html=1;backgroundOutline=1;fillColor=#dae8fc;strokeColor=#6c8ebf;" vertex="1" parent="1">
          <mxGeometry x="-478" y="437" width="120" height="60" as="geometry" />
        </mxCell>
        <mxCell id="OGSjCngKymhnxez_8z23-31" value="" style="edgeStyle=orthogonalEdgeStyle;rounded=0;orthogonalLoop=1;jettySize=auto;html=1;entryX=0.175;entryY=0.583;entryDx=0;entryDy=0;entryPerimeter=0;" edge="1" parent="1" source="OGSjCngKymhnxez_8z23-29" target="OGSjCngKymhnxez_8z23-6">
          <mxGeometry relative="1" as="geometry">
            <mxPoint x="-610" y="579" as="targetPoint" />
          </mxGeometry>
        </mxCell>
        <mxCell id="OGSjCngKymhnxez_8z23-33" value="" style="edgeStyle=orthogonalEdgeStyle;rounded=0;orthogonalLoop=1;jettySize=auto;html=1;" edge="1" parent="1" source="OGSjCngKymhnxez_8z23-29" target="OGSjCngKymhnxez_8z23-5">
          <mxGeometry relative="1" as="geometry">
            <mxPoint x="-735" y="780" as="targetPoint" />
            <Array as="points">
              <mxPoint x="-730" y="700" />
              <mxPoint x="-820" y="700" />
              <mxPoint x="-820" y="780" />
              <mxPoint x="-418" y="780" />
            </Array>
          </mxGeometry>
        </mxCell>
        <mxCell id="OGSjCngKymhnxez_8z23-35" value="" style="edgeStyle=orthogonalEdgeStyle;rounded=0;orthogonalLoop=1;jettySize=auto;html=1;" edge="1" parent="1" source="OGSjCngKymhnxez_8z23-29" target="OGSjCngKymhnxez_8z23-7">
          <mxGeometry relative="1" as="geometry">
            <mxPoint x="-730" y="459" as="targetPoint" />
            <Array as="points">
              <mxPoint x="-730" y="499" />
              <mxPoint x="-729" y="467" />
            </Array>
          </mxGeometry>
        </mxCell>
        <mxCell id="OGSjCngKymhnxez_8z23-29" value="Classes" style="whiteSpace=wrap;html=1;aspect=fixed;" vertex="1" parent="1">
          <mxGeometry x="-770" y="539" width="80" height="80" as="geometry" />
        </mxCell>
      </root>
    </mxGraphModel>
  </diagram>
</mxfile>
